<?xml version="1.0" encoding="UTF-8" standalone="no"?>
<!DOCTYPE svg PUBLIC "-//W3C//DTD SVG 1.1//EN" "http://www.w3.org/Graphics/SVG/1.1/DTD/svg11.dtd">
<svg width="100%" height="100%" viewBox="0 0 747 542" version="1.1" xmlns="http://www.w3.org/2000/svg" xmlns:xlink="http://www.w3.org/1999/xlink" xml:space="preserve" xmlns:serif="http://www.serif.com/" style="fill-rule:evenodd;clip-rule:evenodd;stroke-linejoin:round;stroke-miterlimit:2;">
    <g transform="matrix(4.16667,0,0,4.16667,4.16666,4.16667)">
        <clipPath id="_clip1">
            <rect x="0" y="-0" width="177.602" height="127.843"/>
        </clipPath>
        <g clip-path="url(#_clip1)">
            <path d="M142.814,106.403C131.705,113.206 118.897,118.552 104.39,122.439C88.278,126.756 73.092,128.487 58.832,127.631C44.572,126.775 32.422,123.055 22.383,116.471C12.345,109.887 5.576,100.068 2.079,87.014C-1.439,73.886 -0.492,61.98 4.92,51.296C10.332,40.612 19.008,31.371 30.95,23.575C42.892,15.778 56.919,9.721 73.03,5.404C89.068,1.107 104.193,-0.628 118.406,0.201C127.955,0.758 136.568,2.603 144.246,5.736C147.995,7.267 151.521,9.104 154.824,11.249C164.89,17.786 171.672,27.581 175.17,40.635C178.667,53.688 177.697,65.581 172.258,76.312C171.498,77.811 170.675,79.282 169.789,80.726C169.163,77.907 167.906,75.45 166.018,73.353C165.091,72.324 164.061,71.378 162.926,70.517C160.603,68.754 157.845,67.343 154.652,66.285C149.898,64.709 144.602,63.922 138.763,63.922C132.896,63.922 127.58,64.702 122.813,66.264C118.046,67.826 114.257,70.175 111.446,73.312C108.635,76.449 107.23,80.408 107.23,85.188C107.23,89.941 108.635,93.893 111.446,97.043C114.257,100.194 118.046,102.564 122.813,104.153C127.58,105.741 132.896,106.536 138.763,106.536C140.143,106.536 141.493,106.492 142.814,106.403ZM91.994,97.94C90.881,99.135 88.918,100.404 86.107,101.749C83.296,103.093 79.908,104.227 75.943,105.151C71.977,106.074 67.713,106.536 63.15,106.536C59.158,106.536 55.247,106.149 51.417,105.375C47.588,104.601 44.125,103.372 41.028,101.688C37.932,100.004 35.467,97.804 33.634,95.088C31.801,92.372 30.884,89.072 30.884,85.188C30.884,81.25 31.801,77.923 33.634,75.207C35.467,72.491 37.932,70.304 41.028,68.647C44.125,66.991 47.588,65.789 51.417,65.042C55.247,64.295 59.158,63.922 63.15,63.922C67.74,63.922 71.977,64.329 75.861,65.144C79.745,65.959 83.079,67.025 85.863,68.342C88.647,69.659 90.664,71.065 91.913,72.559L81.483,79.403C79.962,77.746 77.654,76.422 74.558,75.431C71.461,74.439 67.7,73.944 63.273,73.944C61.1,73.944 58.907,74.114 56.693,74.453C54.479,74.793 52.449,75.37 50.602,76.184C48.755,76.999 47.268,78.14 46.141,79.607C45.014,81.073 44.45,82.934 44.45,85.188C44.45,87.415 45.014,89.255 46.141,90.708C47.268,92.161 48.755,93.316 50.602,94.171C52.449,95.027 54.479,95.631 56.693,95.984C58.907,96.337 61.1,96.514 63.273,96.514C67.618,96.514 71.387,95.971 74.578,94.884C77.769,93.798 80.017,92.548 81.32,91.136L91.994,97.94ZM138.763,96.351C144.439,96.351 148.839,95.332 151.963,93.295C155.086,91.258 156.648,88.556 156.648,85.188C156.648,81.739 155.079,79.029 151.942,77.06C148.805,75.091 144.412,74.107 138.763,74.107C133.086,74.107 128.666,75.091 125.502,77.06C122.338,79.029 120.756,81.739 120.756,85.188C120.756,88.61 122.338,91.326 125.502,93.336C128.666,95.346 133.086,96.351 138.763,96.351Z" style="fill:rgb(111,22,62);"/>
            <path d="M143.336,107.256C132.151,114.106 119.256,119.491 104.649,123.405C88.424,127.752 73.132,129.491 58.772,128.629C44.319,127.762 32.009,123.98 21.835,117.307C11.596,110.592 4.68,100.587 1.113,87.273C-2.475,73.883 -1.492,61.741 4.028,50.844C9.513,40.015 18.299,30.64 30.403,22.737C42.427,14.887 56.549,8.785 72.772,4.438C88.921,0.111 104.152,-1.632 118.464,-0.797C128.132,-0.234 136.851,1.638 144.624,4.81C148.432,6.365 152.014,8.232 155.369,10.41C165.636,17.078 172.568,27.06 176.136,40.376C179.703,53.69 178.698,65.819 173.15,76.764C172.378,78.287 171.542,79.782 170.641,81.249C170.428,81.596 170.026,81.78 169.624,81.712C169.222,81.645 168.901,81.341 168.813,80.943C168.225,78.297 167.047,75.99 165.275,74.022C164.389,73.039 163.405,72.136 162.321,71.314C160.08,69.613 157.418,68.255 154.337,67.234C149.678,65.69 144.486,64.922 138.763,64.922C133.011,64.922 127.798,65.683 123.124,67.214C118.542,68.716 114.893,70.964 112.191,73.98C109.539,76.939 108.23,80.679 108.23,85.188C108.23,89.672 109.54,93.405 112.192,96.378C114.895,99.407 118.545,101.676 123.129,103.204C127.801,104.761 133.013,105.536 138.763,105.536C140.12,105.536 141.448,105.493 142.747,105.405C143.206,105.374 143.627,105.661 143.767,106.099C143.907,106.538 143.729,107.015 143.336,107.256ZM142.814,106.403C141.493,106.492 140.143,106.536 138.763,106.536C132.896,106.536 127.58,105.741 122.813,104.153C118.046,102.564 114.257,100.194 111.446,97.043C108.635,93.893 107.23,89.941 107.23,85.188C107.23,80.408 108.635,76.449 111.446,73.312C114.257,70.175 118.046,67.826 122.813,66.264C127.58,64.702 132.896,63.922 138.763,63.922C144.602,63.922 149.898,64.709 154.652,66.285C157.845,67.343 160.603,68.754 162.926,70.517C164.061,71.378 165.091,72.324 166.018,73.353C167.906,75.45 169.163,77.907 169.789,80.726C170.675,79.282 171.498,77.811 172.258,76.312C177.697,65.581 178.667,53.688 175.17,40.635C171.672,27.581 164.89,17.786 154.824,11.249C151.521,9.104 147.995,7.267 144.246,5.736C136.568,2.603 127.955,0.758 118.406,0.201C104.193,-0.628 89.068,1.107 73.03,5.404C56.919,9.721 42.892,15.778 30.95,23.575C19.008,31.371 10.332,40.612 4.92,51.296C-0.492,61.98 -1.439,73.886 2.079,87.014C5.576,100.068 12.345,109.887 22.383,116.471C32.422,123.055 44.572,126.775 58.832,127.631C73.092,128.487 88.278,126.756 104.39,122.439C118.897,118.552 131.705,113.206 142.814,106.403ZM91.994,97.94C90.881,99.135 88.918,100.404 86.107,101.749C83.296,103.093 79.908,104.227 75.943,105.151C71.977,106.074 67.713,106.536 63.15,106.536C59.158,106.536 55.247,106.149 51.417,105.375C47.588,104.601 44.125,103.372 41.028,101.688C37.932,100.004 35.467,97.804 33.634,95.088C31.801,92.372 30.884,89.072 30.884,85.188C30.884,81.25 31.801,77.923 33.634,75.207C35.467,72.491 37.932,70.304 41.028,68.647C44.125,66.991 47.588,65.789 51.417,65.042C55.247,64.295 59.158,63.922 63.15,63.922C67.74,63.922 71.977,64.329 75.861,65.144C79.745,65.959 83.079,67.025 85.863,68.342C88.647,69.659 90.664,71.065 91.913,72.559L81.483,79.403C79.962,77.746 77.654,76.422 74.558,75.431C71.461,74.439 67.7,73.944 63.273,73.944C61.1,73.944 58.907,74.114 56.693,74.453C54.479,74.793 52.449,75.37 50.602,76.184C48.755,76.999 47.268,78.14 46.141,79.607C45.014,81.073 44.45,82.934 44.45,85.188C44.45,87.415 45.014,89.255 46.141,90.708C47.268,92.161 48.755,93.316 50.602,94.171C52.449,95.027 54.479,95.631 56.693,95.984C58.907,96.337 61.1,96.514 63.273,96.514C67.618,96.514 71.387,95.971 74.578,94.884C77.769,93.798 80.017,92.548 81.32,91.136L91.994,97.94ZM90.361,98.084C90.361,98.084 81.451,92.405 81.451,92.405C80.02,93.674 77.844,94.829 74.9,95.831C71.618,96.948 67.742,97.514 63.273,97.514C61.048,97.514 58.802,97.333 56.535,96.972C54.226,96.603 52.109,95.971 50.182,95.079C48.18,94.151 46.572,92.896 45.351,91.321C44.097,89.705 43.45,87.665 43.45,85.188C43.45,82.685 44.097,80.626 45.348,78.997C46.575,77.401 48.189,76.156 50.199,75.269C52.122,74.421 54.236,73.818 56.541,73.464C58.806,73.117 61.05,72.944 63.273,72.944C67.82,72.944 71.682,73.46 74.862,74.478C77.771,75.41 80.016,76.633 81.616,78.12C81.616,78.12 90.364,72.379 90.364,72.379C89.187,71.28 87.54,70.242 85.435,69.246C82.713,67.958 79.453,66.919 75.656,66.122C71.835,65.321 67.666,64.922 63.15,64.922C59.223,64.922 55.376,65.289 51.608,66.023C47.883,66.75 44.512,67.917 41.5,69.529C38.554,71.105 36.207,73.182 34.463,75.766C32.733,78.329 31.884,81.472 31.884,85.188C31.884,88.851 32.734,91.967 34.463,94.528C36.208,97.114 38.558,99.206 41.506,100.81C44.519,102.448 47.889,103.642 51.615,104.395C55.38,105.156 59.225,105.536 63.15,105.536C67.632,105.536 71.821,105.084 75.716,104.177C79.601,103.272 82.922,102.164 85.676,100.847C87.698,99.879 89.263,98.964 90.361,98.084ZM138.763,97.351C132.853,97.351 128.26,96.272 124.966,94.18C121.479,91.965 119.756,88.96 119.756,85.188C119.756,81.383 121.483,78.384 124.974,76.211C128.265,74.163 132.857,73.107 138.763,73.107C144.643,73.107 149.208,74.164 152.474,76.213C155.934,78.385 157.648,81.383 157.648,85.188C157.648,88.898 155.95,91.889 152.509,94.133C149.254,96.255 144.677,97.351 138.763,97.351ZM138.763,96.351C144.439,96.351 148.839,95.332 151.963,93.295C155.086,91.258 156.648,88.556 156.648,85.188C156.648,81.739 155.079,79.029 151.942,77.06C148.805,75.091 144.412,74.107 138.763,74.107C133.086,74.107 128.666,75.091 125.502,77.06C122.338,79.029 120.756,81.739 120.756,85.188C120.756,88.61 122.338,91.326 125.502,93.336C128.666,95.346 133.086,96.351 138.763,96.351Z" style="fill:rgb(255,249,239);"/>
        </g>
    </g>
</svg>
